<svg xmlns="http://www.w3.org/2000/svg" xmlns:xlink="http://www.w3.org/1999/xlink" width="451" height="547.039" viewBox="0 0 451 547.039">
  <defs>
    <filter id="Path_27" x="108.521" y="11.401" width="151.333" height="529.726" filterUnits="userSpaceOnUse">
      <feOffset dy="3" input="SourceAlpha"/>
      <feGaussianBlur stdDeviation="3" result="blur"/>
      <feFlood flood-opacity="0.161"/>
      <feComposite operator="in" in2="blur"/>
      <feComposite in="SourceGraphic"/>
    </filter>
    <filter id="Path_28" x="135.187" y="251.539" width="99.283" height="289.59" filterUnits="userSpaceOnUse">
      <feOffset dy="3" input="SourceAlpha"/>
      <feGaussianBlur stdDeviation="3" result="blur-2"/>
      <feFlood flood-opacity="0.161"/>
      <feComposite operator="in" in2="blur-2"/>
      <feComposite in="SourceGraphic"/>
    </filter>
    <filter id="Path_29" x="256.666" y="11.539" width="101.387" height="530.217" filterUnits="userSpaceOnUse">
      <feOffset dy="3" input="SourceAlpha"/>
      <feGaussianBlur stdDeviation="3" result="blur-3"/>
      <feFlood flood-opacity="0.161"/>
      <feComposite operator="in" in2="blur-3"/>
      <feComposite in="SourceGraphic"/>
    </filter>
    <filter id="Path_30" x="274.921" y="348.606" width="83.133" height="194.217" filterUnits="userSpaceOnUse">
      <feOffset dy="3" input="SourceAlpha"/>
      <feGaussianBlur stdDeviation="3" result="blur-4"/>
      <feFlood flood-opacity="0.161"/>
      <feComposite operator="in" in2="blur-4"/>
      <feComposite in="SourceGraphic"/>
    </filter>
  </defs>
  <g id="Group_7" data-name="Group 7" transform="translate(-709 -325.599)">
    <g id="food" transform="translate(686.077 343)" opacity="0.49">
      <path id="Path_35" data-name="plate" d="M512,256c0,141.385-114.615,256-256,256S0,397.385,0,256,512,114.615,512,256Z" transform="matrix(0.105, 0.995, -0.995, 0.105, 551.118, -33.077)" fill="#f3dab4"/>
      <g transform="matrix(1, 0, 0, 1, 22.92, -17.4)" filter="url(#Path_27)">
        <path id="Path_27-2" data-name="fork blade" d="M264.177.137c-5.333,0-8.533,5.333-8.533,9.6V106.8a9.6,9.6,0,0,1-19.2,0V9.737c0-5.333-3.2-9.6-8.533-9.6-5.333-1.067-10.667,4.267-10.667,9.6V106.8a9.561,9.561,0,0,1-9.6,9.6h0a9.561,9.561,0,0,1-9.6-9.6V9.737c0-5.333-3.2-9.6-8.533-9.6-5.333-1.067-10.667,4.267-10.667,9.6V106.8a9.561,9.561,0,0,1-9.6,9.6h0a9.561,9.561,0,0,1-9.6-9.6V9.737c0-5.333-3.2-9.6-8.533-9.6-5.333-1.067-10.667,4.267-10.667,9.6V117.47c0,18.133,7.467,34.133,19.2,46.933,19.2,19.2,29.867,45.867,27.733,72.533l-21.333,230.4V474.8c2.133,23.467,24.533,40.533,48,36.267,21.333-4.267,35.2-24.533,33.067-45.867L226.844,235.87c-2.133-27.733,8.533-53.333,27.733-72.533a66.991,66.991,0,0,0,19.2-46.933V9.737A9.56,9.56,0,0,0,264.177.137Z" transform="translate(-22.92 17.4)" fill="#9e9e9e"/>
      </g>
      <g transform="matrix(1, 0, 0, 1, 22.92, -17.4)" filter="url(#Path_28)">
        <path id="Path_28-2" data-name="fork handle" d="M227.91,240.137H187.377l-20.267,227.2V474.8c2.133,23.467,24.533,40.533,48,36.267,21.333-4.267,35.2-24.533,33.067-45.867Z" transform="translate(-22.92 17.4)" fill="#d55e6f"/>
      </g>
      <g transform="matrix(1, 0, 0, 1, 22.92, -17.4)" filter="url(#Path_29)">
        <path id="Path_29-2" data-name="knife blade" d="M355.91.137S310.043,18.27,290.843,155.87c-7.467,56.533,4.267,112,25.6,164.267a49.83,49.83,0,0,1,3.2,18.133l-12.8,137.6v6.4a33.73,33.73,0,0,0,37.333,29.867c17.067-2.133,28.8-20.267,27.733-37.333Z" transform="translate(-22.92 17.4)" fill="#9e9e9e"/>
      </g>
      <g transform="matrix(1, 0, 0, 1, 22.92, -17.4)" filter="url(#Path_30)">
        <path id="Path_30-2" data-name="knife handle" d="M319.644,337.2v2.133l-12.8,137.6v6.4A33.73,33.73,0,0,0,344.177,513.2c17.067-2.133,28.8-20.267,27.733-37.333l-4.267-137.6h-48V337.2Z" transform="translate(-22.92 17.4)" fill="#ff5880"/>
      </g>
    </g>
    <text id="Plan_Eat_Repeat" data-name="Plan
Eat
Repeat" transform="translate(935 497)" fill="#fff" font-size="100" font-family="Luna"><tspan x="-126.95" y="0">Plan</tspan><tspan x="-120.4" y="150">Eat</tspan><tspan x="-224.85" y="300">Repeat</tspan></text>
  </g>
</svg>
